<svg width="353.459521484375px" height="122px" xmlns="http://www.w3.org/2000/svg" viewBox="73.2702392578125 14 353.459521484375 122" style="background:#fff" preserveAspectRatio="xMidYMid"><defs><filter id="editing-marble" x="-100%" y="-100%" width="300%" height="300%"><feFlood flood-color="#b44607" result="flood-1"></feFlood><feComposite operator="in" in="flood-1" in2="SourceAlpha" result="flood-2"></feComposite><feTurbulence baseFrequency="0.07" type="fractalNoise" numOctaves="1" seed="2" result="bs-1"></feTurbulence><feGaussianBlur stdDeviation="1" in="flood-2" result="bs-2"></feGaussianBlur><feDisplacementMap scale="110" in="bs-2" in2="bs-1" result="bs-3"></feDisplacementMap><feComposite operator="in" in="bs-3" in2="SourceAlpha" result="texture"></feComposite><feMerge><feMergeNode in="SourceGraphic"></feMergeNode><feMergeNode in="texture"></feMergeNode></feMerge></filter></defs><g filter="url(#editing-marble)"><g transform="translate(128.85192692279816, 96.76000022888184)"><path d="M6.53 0L-0.83 0L10.75-42.24L24.13-42.24L27.07-18.11L38.98-42.24L50.18-42.24L51.33-10.62L51.33-10.62Q51.58-4.35 54.66-2.43L54.66-2.43L54.66-2.43Q53.95-1.15 51.90 0.06L51.90 0.06L51.90 0.06Q49.86 1.28 47.14 1.28L47.14 1.28L47.14 1.28Q44.42 1.28 42.82 0.51L42.82 0.51L42.82 0.51Q41.22-0.26 40.32-1.54L40.32-1.54L40.32-1.54Q38.72-3.84 38.72-8.26L38.72-8.26L38.72-28.03L26.11 0L18.18 0L13.70-28.74L6.53 0ZM56.51-3.78L56.51-3.78L56.51-3.78Q56.51-6.21 58.40-7.55L58.40-7.55L58.40-7.55Q60.29-8.90 62.98-8.90L62.98-8.90L62.98-8.90Q65.66-8.90 67.30-7.55L67.30-7.55L67.30-7.55Q68.93-6.21 68.93-3.78L68.93-3.78L68.93-3.78Q68.93-1.34 67.10-0.03L67.10-0.03L67.10-0.03Q65.28 1.28 62.59 1.28L62.59 1.28L62.59 1.28Q59.90 1.28 58.21-0.03L58.21-0.03L58.21-0.03Q56.51-1.34 56.51-3.78ZM75.52-9.47L75.52-9.47L75.52-9.47Q75.52-11.97 76.16-15.17L76.16-15.17L81.34-42.24L95.49-42.24L90.37-14.98L90.37-14.98Q89.79-11.97 89.79-9.76L89.79-9.76L89.79-9.76Q89.79-7.55 90.72-6.40L90.72-6.40L90.72-6.40Q91.65-5.25 93.38-5.25L93.38-5.25L93.38-5.25Q95.10-5.25 96.19-5.70L96.19-5.70L96.19-5.70Q97.28-6.14 98.18-7.23L98.18-7.23L98.18-7.23Q99.90-9.41 100.99-14.98L100.99-14.98L106.18-42.24L115.84-42.24L110.72-15.04L110.72-15.04Q108.93-5.95 104-2.30L104-2.30L104-2.30Q99.20 1.28 89.73 1.28L89.73 1.28L89.73 1.28Q82.62 1.28 78.85-1.79L78.85-1.79L78.85-1.79Q75.52-4.48 75.52-9.47ZM163.20 1.28L163.20 1.28L163.20 1.28Q155.46 1.28 155.46-4.74L155.46-4.74L155.46-4.74Q155.46-7.36 156.58-12.45L156.58-12.45L156.58-12.45Q157.70-17.54 158.08-19.58L158.08-19.58L158.08-19.58Q158.98-24.26 158.98-25.73L158.98-25.73L158.98-25.73Q158.98-28.99 156.54-28.99L156.54-28.99L156.54-28.99Q154.94-28.99 153.41-26.78L153.41-26.78L153.41-26.78Q151.87-24.58 151.17-20.16L151.17-20.16L147.20 0L134.72 1.28L138.18-16.13L138.18-16.13Q138.75-19.01 139.26-22.27L139.26-22.27L139.26-22.27Q139.78-25.54 139.78-26.05L139.78-26.05L139.78-26.05Q139.78-28.99 137.60-28.99L137.60-28.99L137.60-28.99Q136.13-28.99 134.53-26.82L134.53-26.82L134.53-26.82Q132.93-24.64 132.03-20.16L132.03-20.16L128.13 0L115.52 1.28L122.24-32.64L132.67-33.92L131.58-27.46L131.58-27.46Q133.25-30.91 136.32-32.42L136.32-32.42L136.32-32.42Q139.39-33.92 144.19-33.92L144.19-33.92L144.19-33.92Q146.94-33.92 148.74-32.58L148.74-32.58L148.74-32.58Q150.53-31.23 151.10-29.06L151.10-29.06L151.10-29.06Q152.19-31.30 154.98-32.61L154.98-32.61L154.98-32.61Q157.76-33.92 161.18-33.92L161.18-33.92L161.18-33.92Q164.61-33.92 166.30-33.18L166.30-33.18L166.30-33.18Q168-32.45 169.02-31.23L169.02-31.23L169.02-31.23Q170.75-28.99 170.75-24.90L170.75-24.90L170.75-24.90Q170.75-20.86 169.02-12.48L169.02-12.48L169.02-12.48Q168.13-8.38 168.13-6.88L168.13-6.88L168.13-6.88Q168.13-5.38 168.99-4.48L168.99-4.48L168.99-4.48Q169.86-3.58 171.14-3.46L171.14-3.46L171.14-3.46Q170.50-1.28 168.29 0L168.29 0L168.29 0Q166.08 1.28 163.20 1.28ZM201.98-10.82L201.98-10.82L201.98-10.82Q203.58-9.73 203.58-7.33L203.58-7.33L203.58-7.33Q203.58-4.93 202.37-3.39L202.37-3.39L202.37-3.39Q201.15-1.86 199.17-0.83L199.17-0.83L199.17-0.83Q195.07 1.28 190.66 1.28L190.66 1.28L190.66 1.28Q186.24 1.28 183.65 0.32L183.65 0.32L183.65 0.32Q181.06-0.64 179.33-2.43L179.33-2.43L179.33-2.43Q175.94-5.82 175.94-12.03L175.94-12.03L175.94-12.03Q175.94-21.70 181.18-27.58L181.18-27.58L181.18-27.58Q186.82-33.92 196.61-33.92L196.61-33.92L196.61-33.92Q202.69-33.92 205.70-31.36L205.70-31.36L205.70-31.36Q207.94-29.44 207.94-26.30L207.94-26.30L207.94-26.30Q207.94-15.04 188.48-15.04L188.48-15.04L188.48-15.04Q188.22-13.38 188.22-11.97L188.22-11.97L188.22-11.97Q188.22-9.02 189.54-7.90L189.54-7.90L189.54-7.90Q190.85-6.78 193.28-6.78L193.28-6.78L193.28-6.78Q195.71-6.78 198.30-7.90L198.30-7.90L198.30-7.90Q200.90-9.02 201.98-10.82ZM188.93-17.79L188.93-17.79L188.93-17.79Q193.47-17.79 196.10-20.61L196.10-20.61L196.10-20.61Q198.72-23.30 198.72-27.58L198.72-27.58L198.72-27.58Q198.72-29.06 198.18-29.86L198.18-29.86L198.18-29.86Q197.63-30.66 196.54-30.66L196.54-30.66L196.54-30.66Q195.46-30.66 194.53-30.24L194.53-30.24L194.53-30.24Q193.60-29.82 192.64-28.42L192.64-28.42L192.64-28.42Q190.27-25.22 188.93-17.79ZM230.14-17.98L230.14-17.98L230.14-17.98Q232.45-22.08 232.45-26.24L232.45-26.24L232.45-26.24Q232.45-28.99 230.46-28.99L230.46-28.99L230.46-28.99Q228.93-28.99 227.33-26.37L227.33-26.37L227.33-26.37Q225.66-23.74 225.15-20.35L225.15-20.35L221.82 0L208.58 1.28L215.10-32.64L225.66-33.92L224.51-27.46L224.51-27.46Q227.65-33.92 234.69-33.92L234.69-33.92L234.69-33.92Q238.40-33.92 240.42-32L240.42-32L240.42-32Q242.43-30.08 242.43-26.14L242.43-26.14L242.43-26.14Q242.43-22.21 239.84-19.71L239.84-19.71L239.84-19.71Q237.25-17.22 232.83-17.22L232.83-17.22L232.83-17.22Q230.91-17.22 230.14-17.98Z" fill="#e49c49"></path></g></g><style>text {
  font-size: 64px;
  font-family: Arial Black;
  dominant-baseline: central;
  text-anchor: middle;
}</style></svg>