<svg width="318.924658203125px" height="125.6px" xmlns="http://www.w3.org/2000/svg" viewBox="90.53767089843751 12.200000000000003 318.924658203125 125.6" style="background: rgb(21, 19, 19);" preserveAspectRatio="xMidYMid"><defs><filter id="editing-marble" x="-100%" y="-100%" width="300%" height="300%"><feFlood flood-color="#b44607" result="flood-1"></feFlood><feComposite operator="in" in="flood-1" in2="SourceAlpha" result="flood-2"></feComposite><feTurbulence baseFrequency="0.07" type="fractalNoise" numOctaves="1" seed="2" result="bs-1"></feTurbulence><feGaussianBlur stdDeviation="1" in="flood-2" result="bs-2"></feGaussianBlur><feDisplacementMap scale="110" in="bs-2" in2="bs-1" result="bs-3"></feDisplacementMap><feComposite operator="in" in="bs-3" in2="SourceAlpha" result="texture"></feComposite><feMerge><feMergeNode in="SourceGraphic"></feMergeNode><feMergeNode in="texture"></feMergeNode></feMerge></filter></defs><g filter="url(#editing-marble)"><g transform="translate(139.7104139328003, 95.41500091552734)"><path d="M51.97-0.77L51.97-0.77Q52.16-0.77 52.16-0.38L52.16-0.38L52.16-0.38Q52.16 0 51.97 0L51.97 0L51.97 0Q49.98 0 48.83-0.06L48.83-0.06L44.42-0.13L40.32-0.06L40.32-0.06Q39.30 0 37.44 0L37.44 0L37.44 0Q37.31 0 37.31-0.38L37.31-0.38L37.31-0.38Q37.31-0.77 37.44-0.77L37.44-0.77L37.44-0.77Q39.62-0.77 40.67-1.12L40.67-1.12L40.67-1.12Q41.73-1.47 42.08-2.37L42.08-2.37L42.08-2.37Q42.43-3.26 42.30-5.18L42.30-5.18L41.15-34.30L26.56-0.45L26.56-0.45Q26.43-0.19 26.05-0.19L26.05-0.19L26.05-0.19Q25.73-0.19 25.47-0.45L25.47-0.45L9.73-33.92L9.15-6.98L9.15-6.98Q9.09-3.58 10.30-2.18L10.30-2.18L10.30-2.18Q11.52-0.77 14.59-0.77L14.59-0.77L14.59-0.77Q14.72-0.77 14.72-0.38L14.72-0.38L14.72-0.38Q14.72 0 14.59 0L14.59 0L14.59 0Q12.80 0 11.84-0.06L11.84-0.06L8.38-0.13L5.06-0.06L5.06-0.06Q4.16 0 2.50 0L2.50 0L2.50 0Q2.37 0 2.37-0.38L2.37-0.38L2.37-0.38Q2.37-0.77 2.50-0.77L2.50-0.77L2.50-0.77Q5.18-0.77 6.37-2.21L6.37-2.21L6.37-2.21Q7.55-3.65 7.62-6.98L7.62-6.98L8.19-36.67L8.19-36.67Q6.27-39.23 2.94-39.23L2.94-39.23L2.94-39.23Q2.82-39.23 2.82-39.62L2.82-39.62L2.82-39.62Q2.82-40 2.94-40L2.94-40L5.31-39.94L5.31-39.94Q5.95-39.87 7.10-39.87L7.10-39.87L7.10-39.87Q8.26-39.87 9.06-39.94L9.06-39.94L9.06-39.94Q9.86-40 10.30-40L10.30-40L10.30-40Q11.14-40 11.68-39.39L11.68-39.39L11.68-39.39Q12.22-38.78 13.25-36.67L13.25-36.67L27.52-6.59L41.47-38.40L41.47-38.40Q42.18-40 43.39-40L43.39-40L43.39-40Q43.71-40 44.32-39.94L44.32-39.94L44.32-39.94Q44.93-39.87 45.95-39.87L45.95-39.87L48.96-39.94L48.96-39.94Q49.66-40 51.07-40L51.07-40L51.07-40Q51.26-40 51.26-39.62L51.26-39.62L51.26-39.62Q51.26-39.23 51.07-39.23L51.07-39.23L51.07-39.23Q47.87-39.23 46.50-38.30L46.50-38.30L46.50-38.30Q45.12-37.38 45.18-34.82L45.18-34.82L46.46-5.18L46.46-5.18Q46.53-3.20 46.94-2.30L46.94-2.30L46.94-2.30Q47.36-1.41 48.45-1.09L48.45-1.09L48.45-1.09Q49.54-0.77 51.97-0.77L51.97-0.77ZM59.84 0.70L59.84 0.70Q58.56 0.70 57.79-0.06L57.79-0.06L57.79-0.06Q57.02-0.83 57.02-2.05L57.02-2.05L57.02-2.05Q57.02-3.26 57.79-4L57.79-4L57.79-4Q58.56-4.74 59.84-4.74L59.84-4.74L59.84-4.74Q61.18-4.74 61.92-4.03L61.92-4.03L61.92-4.03Q62.66-3.33 62.66-2.05L62.66-2.05L62.66-2.05Q62.66-0.77 61.92-0.03L61.92-0.03L61.92-0.03Q61.18 0.70 59.84 0.70L59.84 0.70ZM102.72-32.96L102.72-32.96Q102.72-39.23 97.15-39.23L97.15-39.23L97.15-39.23Q96.96-39.23 96.96-39.62L96.96-39.62L96.96-39.62Q96.96-40 97.15-40L97.15-40L99.90-39.94L99.90-39.94Q102.21-39.81 103.55-39.81L103.55-39.81L103.55-39.81Q104.64-39.81 106.69-39.94L106.69-39.94L109.38-40L109.38-40Q109.50-40 109.50-39.62L109.50-39.62L109.50-39.62Q109.50-39.23 109.38-39.23L109.38-39.23L109.38-39.23Q104.26-39.23 104.26-32.96L104.26-32.96L104.26-14.78L104.26-14.78Q104.26-7.42 100.16-3.30L100.16-3.30L100.16-3.30Q96.06 0.83 89.15 0.83L89.15 0.83L89.15 0.83Q84.42 0.83 80.86-1.02L80.86-1.02L80.86-1.02Q77.31-2.88 75.36-6.30L75.36-6.30L75.36-6.30Q73.41-9.73 73.41-14.34L73.41-14.34L73.41-34.82L73.41-34.82Q73.41-36.74 73.02-37.63L73.02-37.63L73.02-37.63Q72.64-38.53 71.52-38.88L71.52-38.88L71.52-38.88Q70.40-39.23 67.97-39.23L67.97-39.23L67.97-39.23Q67.84-39.23 67.84-39.62L67.84-39.62L67.84-39.62Q67.84-40 67.97-40L67.97-40L71.10-39.94L71.10-39.94Q73.79-39.81 75.46-39.81L75.46-39.81L75.46-39.81Q77.25-39.81 79.94-39.94L79.94-39.94L83.01-40L83.01-40Q83.20-40 83.20-39.62L83.20-39.62L83.20-39.62Q83.20-39.23 83.01-39.23L83.01-39.23L83.01-39.23Q80.64-39.23 79.49-38.85L79.49-38.85L79.49-38.85Q78.34-38.46 77.95-37.54L77.95-37.54L77.95-37.54Q77.57-36.61 77.57-34.69L77.57-34.69L77.57-16.58L77.57-16.58Q77.57-9.09 80.99-5.09L80.99-5.09L80.99-5.09Q84.42-1.09 90.56-1.09L90.56-1.09L90.56-1.09Q96.32-1.09 99.52-4.70L99.52-4.70L99.52-4.70Q102.72-8.32 102.72-14.72L102.72-14.72L102.72-32.96ZM152.96-0.77L152.96-0.77Q153.09-0.77 153.09-0.38L153.09-0.38L153.09-0.38Q153.09 0 152.96 0L152.96 0L152.96 0Q151.17 0 150.14-0.06L150.14-0.06L146.37-0.13L142.02-0.06L142.02-0.06Q140.93 0 139.01 0L139.01 0L139.01 0Q138.88 0 138.88-0.38L138.88-0.38L138.88-0.38Q138.88-0.77 139.01-0.77L139.01-0.77L139.01-0.77Q141.38-0.77 142.53-1.12L142.53-1.12L142.53-1.12Q143.68-1.47 144.06-2.37L144.06-2.37L144.06-2.37Q144.45-3.26 144.32-5.18L144.32-5.18L143.55-26.75L132.54-0.45L132.54-0.45Q132.42-0.19 132.10-0.19L132.10-0.19L132.10-0.19Q131.71-0.19 131.58-0.45L131.58-0.45L119.36-24.64L119.23-24.90L118.66-6.98L118.66-6.98Q118.59-3.58 119.55-2.18L119.55-2.18L119.55-2.18Q120.51-0.77 122.82-0.77L122.82-0.77L122.82-0.77Q123.01-0.77 123.01-0.38L123.01-0.38L123.01-0.38Q123.01 0 122.82 0L122.82 0L122.82 0Q121.47 0 120.77-0.06L120.77-0.06L117.95-0.13L115.26-0.06L115.26-0.06Q114.43 0 112.96 0L112.96 0L112.96 0Q112.83 0 112.83-0.38L112.83-0.38L112.83-0.38Q112.83-0.77 112.96-0.77L112.96-0.77L112.96-0.77Q115.33-0.77 116.29-2.18L116.29-2.18L116.29-2.18Q117.25-3.58 117.38-6.98L117.38-6.98L118.02-26.82L118.02-26.82Q116.16-29.18 113.47-29.18L113.47-29.18L113.47-29.18Q113.28-29.18 113.28-29.57L113.28-29.57L113.28-29.57Q113.28-29.95 113.47-29.95L113.47-29.95L116.99-29.89L120.06-29.95L120.06-29.95Q120.90-29.95 121.41-29.38L121.41-29.38L121.41-29.38Q121.92-28.80 123.01-26.62L123.01-26.62L133.50-5.76L142.98-28.35L142.98-28.35Q143.23-29.06 143.78-29.50L143.78-29.50L143.78-29.50Q144.32-29.95 144.90-29.95L144.90-29.95L148.29-29.89L152.58-29.95L152.58-29.95Q152.70-29.95 152.70-29.57L152.70-29.57L152.70-29.57Q152.70-29.18 152.58-29.18L152.58-29.18L152.58-29.18Q149.70-29.18 148.54-28.32L148.54-28.32L148.54-28.32Q147.39-27.46 147.52-24.90L147.52-24.90L148.29-5.18L148.29-5.18Q148.42-3.20 148.74-2.30L148.74-2.30L148.74-2.30Q149.06-1.41 149.98-1.09L149.98-1.09L149.98-1.09Q150.91-0.77 152.96-0.77L152.96-0.77ZM181.18-8.51L181.18-8.51Q181.18-8.70 181.54-8.70L181.54-8.70L181.54-8.70Q181.89-8.70 181.89-8.51L181.89-8.51L181.89-8.51Q181.44-3.90 181.44-0.96L181.44-0.96L181.44-0.96Q181.44-0.45 181.25-0.22L181.25-0.22L181.25-0.22Q181.06 0 180.48 0L180.48 0L157.06 0L157.06 0Q156.93 0 156.93-0.38L156.93-0.38L156.93-0.38Q156.93-0.77 157.06-0.77L157.06-0.77L157.06-0.77Q159.17-0.77 160.13-1.09L160.13-1.09L160.13-1.09Q161.09-1.41 161.44-2.34L161.44-2.34L161.44-2.34Q161.79-3.26 161.79-5.18L161.79-5.18L161.79-24.77L161.79-24.77Q161.79-26.69 161.44-27.58L161.44-27.58L161.44-27.58Q161.09-28.48 160.13-28.83L160.13-28.83L160.13-28.83Q159.17-29.18 157.06-29.18L157.06-29.18L157.06-29.18Q156.93-29.18 156.93-29.57L156.93-29.57L156.93-29.57Q156.93-29.95 157.06-29.95L157.06-29.95L179.33-29.95L179.33-29.95Q179.97-29.95 179.97-29.44L179.97-29.44L180.03-25.47L180.03-25.47Q180.10-24.26 180.10-22.40L180.10-22.40L180.10-22.40Q180.10-22.21 179.71-22.21L179.71-22.21L179.71-22.21Q179.33-22.21 179.33-22.40L179.33-22.40L179.33-22.40Q179.07-25.34 177.18-27.23L177.18-27.23L177.18-27.23Q175.30-29.12 172.54-29.12L172.54-29.12L170.75-29.12L170.75-29.12Q168.51-29.12 167.49-28.77L167.49-28.77L167.49-28.77Q166.46-28.42 166.08-27.52L166.08-27.52L166.08-27.52Q165.70-26.62 165.70-24.70L165.70-24.70L165.70-15.94L165.70-15.94Q171.90-16 174.18-16.29L174.18-16.29L174.18-16.29Q176.45-16.58 176.77-16.58L176.77-16.58L176.77-16.58Q177.09-16.58 177.09-15.23L177.09-15.23L177.09-15.23Q177.09-13.76 176.77-13.76L176.77-13.76L176.77-13.76Q176.51-13.76 174.21-14.11L174.21-14.11L174.21-14.11Q171.90-14.46 165.70-14.59L165.70-14.59L165.70-5.44L165.70-5.44Q165.70-3.58 166.08-2.66L166.08-2.66L166.08-2.66Q166.46-1.73 167.52-1.38L167.52-1.38L167.52-1.38Q168.58-1.02 170.75-1.02L170.75-1.02L173.82-1.02L173.82-1.02Q176.38-1.02 178.43-3.10L178.43-3.10L178.43-3.10Q180.48-5.18 181.18-8.51L181.18-8.51ZM219.26-0.77L219.26-0.77Q219.39-0.77 219.39-0.38L219.39-0.38L219.39-0.38Q219.39 0 219.26 0L219.26 0L211.78 0L211.78 0Q210.62 0 207.71-3.84L207.71-3.84L207.71-3.84Q204.80-7.68 200.70-14.46L200.70-14.46L200.70-14.46Q199.49-14.21 197.95-14.21L197.95-14.21L197.95-14.21Q196.35-14.21 195.52-14.34L195.52-14.34L195.52-5.18L195.52-5.18Q195.52-3.20 195.84-2.30L195.84-2.30L195.84-2.30Q196.16-1.41 197.12-1.09L197.12-1.09L197.12-1.09Q198.08-0.77 200.26-0.77L200.26-0.77L200.26-0.77Q200.38-0.77 200.38-0.38L200.38-0.38L200.38-0.38Q200.38 0 200.26 0L200.26 0L200.26 0Q198.46 0 197.50-0.06L197.50-0.06L193.47-0.13L189.70-0.06L189.70-0.06Q188.61 0 186.75 0L186.75 0L186.75 0Q186.62 0 186.62-0.38L186.62-0.38L186.62-0.38Q186.62-0.77 186.75-0.77L186.75-0.77L186.75-0.77Q188.86-0.77 189.86-1.09L189.86-1.09L189.86-1.09Q190.85-1.41 191.23-2.34L191.23-2.34L191.23-2.34Q191.62-3.26 191.62-5.18L191.62-5.18L191.62-24.77L191.62-24.77Q191.62-26.69 191.26-27.58L191.26-27.58L191.26-27.58Q190.91-28.48 189.92-28.83L189.92-28.83L189.92-28.83Q188.93-29.18 186.82-29.18L186.82-29.18L186.82-29.18Q186.69-29.18 186.69-29.57L186.69-29.57L186.69-29.57Q186.69-29.95 186.82-29.95L186.82-29.95L189.76-29.89L189.76-29.89Q192.06-29.76 193.47-29.76L193.47-29.76L193.47-29.76Q194.62-29.76 195.62-29.82L195.62-29.82L195.62-29.82Q196.61-29.89 197.31-29.95L197.31-29.95L197.31-29.95Q199.30-30.14 201.09-30.14L201.09-30.14L201.09-30.14Q205.25-30.14 207.42-28.54L207.42-28.54L207.42-28.54Q209.60-26.94 209.60-23.94L209.60-23.94L209.60-23.94Q209.60-21.38 208.13-19.20L208.13-19.20L208.13-19.20Q206.66-17.02 204.16-15.68L204.16-15.68L204.16-15.68Q207.74-9.79 210.21-6.62L210.21-6.62L210.21-6.62Q212.67-3.46 214.75-2.11L214.75-2.11L214.75-2.11Q216.83-0.77 219.26-0.77L219.26-0.77ZM195.52-15.49L195.52-15.49Q196.67-15.30 198.40-15.30L198.40-15.30L198.40-15.30Q202.37-15.30 203.94-17.06L203.94-17.06L203.94-17.06Q205.50-18.82 205.50-22.21L205.50-22.21L205.50-22.21Q205.50-29.25 199.42-29.25L199.42-29.25L199.42-29.25Q196.99-29.25 196.26-28.22L196.26-28.22L196.26-28.22Q195.52-27.20 195.52-24.64L195.52-24.64L195.52-15.49Z" fill="#e49c49"></path></g></g><style>text {
  font-size: 64px;
  font-family: Arial Black;
  dominant-baseline: central;
  text-anchor: middle;
}</style></svg>