<svg width="1118.54375px" height="173.6px" xmlns="http://www.w3.org/2000/svg" viewBox="-309.271875 -11.799999999999997 1118.54375 173.6" style="background: rgb(255, 249, 245);" preserveAspectRatio="xMidYMid"><defs><linearGradient id="editing-glowing-gradient" x1="0.8146601955249186" x2="0.18533980447508142" y1="0.8885729807284856" y2="0.11142701927151444"><stop offset="0" stop-color="#000000"></stop><stop offset="1" stop-color="#774023"></stop></linearGradient><filter id="editing-glowing" x="-100%" y="-100%" width="300%" height="300%"><feGaussianBlur in="SourceGraphic" result="blur" stdDeviation="10"></feGaussianBlur><feMerge><feMergeNode in="blur"></feMergeNode><feMergeNode in="SourceGraphic"></feMergeNode></feMerge></filter></defs><g filter="url(#editing-glowing)"><g transform="translate(-157.93004989624023, 112.07500076293945)"><path d="M42.37 0.49L42.37 0.49Q40.89 0.49 40.29-0.49L40.29-0.49L18.02-50.89L17.72-50.89L17.92-11.58L17.92-11.58Q18.02-8.91 18.32-7.47L18.32-7.47L18.32-7.47Q18.61-6.04 19.95-5.00L19.95-5.00L19.95-5.00Q21.29-3.96 24.16-3.96L24.16-3.96L24.75-3.96L24.75-3.96Q25.74-3.96 26.19-3.61L26.19-3.61L26.19-3.61Q26.63-3.27 26.73-1.88L26.73-1.88L26.73-1.88Q26.73-0.99 26.28-0.35L26.28-0.35L26.28-0.35Q25.84 0.30 24.95 0.30L24.95 0.30L22.47 0.20L22.47 0.20Q17.92 0 15.94 0L15.94 0L15.94 0Q12.57 0 6.14 0.30L6.14 0.30L6.14 0.30Q5.25 0.30 4.80-0.35L4.80-0.35L4.80-0.35Q4.36-0.99 4.36-1.88L4.36-1.88L4.36-1.88Q4.46-3.37 4.95-3.66L4.95-3.66L4.95-3.66Q5.45-3.96 6.83-3.96L6.83-3.96L6.83-3.96Q9.70-3.96 11.04-5.00L11.04-5.00L11.04-5.00Q12.38-6.04 12.67-7.47L12.67-7.47L12.67-7.47Q12.97-8.91 13.07-11.58L13.07-11.58L13.27-50.89L13.27-50.89Q13.27-53.96 12.57-55.49L12.57-55.49L12.57-55.49Q11.88-57.02 10.54-57.67L10.54-57.67L10.54-57.67Q9.21-58.31 6.63-58.81L6.63-58.81L6.63-58.81Q6.24-58.91 5.45-59.05L5.45-59.05L5.45-59.05Q4.65-59.20 4.41-59.65L4.41-59.65L4.41-59.65Q4.16-60.09 4.16-61.08L4.16-61.08L4.16-61.08Q4.16-62.27 4.80-62.67L4.80-62.67L4.80-62.67Q5.45-63.06 6.83-63.06L6.83-63.06L6.83-63.06Q12.67-63.06 16.43-62.32L16.43-62.32L16.43-62.32Q20.20-61.58 23.02-59.30L23.02-59.30L23.02-59.30Q25.84-57.02 27.72-52.57L27.72-52.57L44.75-14.36L45.05-14.36L64.55-62.47L70.19-62.47L70.19-62.47Q75.64-62.47 81.97-62.77L81.97-62.77L81.97-62.77Q82.86-62.77 83.31-62.12L83.31-62.12L83.31-62.12Q83.75-61.48 83.75-60.59L83.75-60.59L83.75-60.59Q83.66-59.10 83.11-58.81L83.11-58.81L83.11-58.81Q82.57-58.51 81.28-58.51L81.28-58.51L81.28-58.51Q78.41-58.51 77.02-57.47L77.02-57.47L77.02-57.47Q75.64-56.43 75.29-54.90L75.29-54.90L75.29-54.90Q74.94-53.36 74.84-50.89L74.84-50.89L74.84-11.58L74.84-11.58Q74.94-9.11 75.29-7.57L75.29-7.57L75.29-7.57Q75.64-6.04 77.02-5.00L77.02-5.00L77.02-5.00Q78.41-3.96 81.28-3.96L81.28-3.96L81.87-3.96L81.87-3.96Q82.76-3.96 83.21-3.61L83.21-3.61L83.21-3.61Q83.66-3.27 83.75-1.88L83.75-1.88L83.75-1.88Q83.75-0.99 83.31-0.35L83.31-0.35L83.31-0.35Q82.86 0.30 81.97 0.30L81.97 0.30L81.97 0.30Q75.64 0 70.09 0L70.09 0L70.09 0Q64.35 0 57.92 0.30L57.92 0.30L57.92 0.30Q57.02 0.30 56.58-0.35L56.58-0.35L56.58-0.35Q56.13-0.99 56.13-1.88L56.13-1.88L56.13-1.88Q56.23-3.37 56.73-3.66L56.73-3.66L56.73-3.66Q57.22-3.96 58.61-3.96L58.61-3.96L58.61-3.96Q61.48-3.96 62.87-5.00L62.87-5.00L62.87-5.00Q64.25-6.04 64.60-7.57L64.60-7.57L64.60-7.57Q64.94-9.11 65.04-11.58L65.04-11.58L65.04-50.89L64.75-50.89L44.35-0.49L44.35-0.49Q43.96 0.49 42.37 0.49L42.37 0.49ZM111.77 1.19L111.77 1.19Q105.04 1.19 101.08-2.87L101.08-2.87L101.08-2.87Q97.12-6.93 97.12-13.56L97.12-13.56L97.12-31.88L97.12-31.88Q97.12-34.45 96.97-35.64L96.97-35.64L96.97-35.64Q96.82-36.83 95.73-37.72L95.73-37.72L95.73-37.72Q94.64-38.61 92.07-38.61L92.07-38.61L92.07-38.61Q90.88-38.61 90.29-38.96L90.29-38.96L90.29-38.96Q89.69-39.30 89.69-40.59L89.69-40.59L89.69-40.59Q89.69-41.18 90.09-41.73L90.09-41.73L90.09-41.73Q90.49-42.27 91.28-42.37L91.28-42.37L91.28-42.37Q97.52-43.26 101.97-44.95L101.97-44.95L101.97-44.95Q103.36-45.44 104.25-45.54L104.25-45.54L104.54-45.54L104.54-45.54Q106.13-45.54 106.13-43.66L106.13-43.66L106.13-13.66L106.13-13.66Q106.13-9.11 109.00-6.68L109.00-6.68L109.00-6.68Q111.87-4.26 115.63-4.26L115.63-4.26L115.63-4.26Q120.29-4.26 123.55-6.53L123.55-6.53L123.55-6.53Q126.82-8.81 127.91-11.09L127.91-11.09L127.91-31.88L127.91-31.88Q127.91-34.45 127.76-35.64L127.76-35.64L127.76-35.64Q127.61-36.83 126.52-37.72L126.52-37.72L126.52-37.72Q125.43-38.61 122.86-38.61L122.86-38.61L122.86-38.61Q121.67-38.61 121.08-38.96L121.08-38.96L121.08-38.96Q120.48-39.30 120.48-40.59L120.48-40.59L120.48-40.59Q120.48-41.18 120.88-41.73L120.88-41.73L120.88-41.73Q121.28-42.27 122.07-42.37L122.07-42.37L122.07-42.37Q128.30-43.26 132.76-44.95L132.76-44.95L132.76-44.95Q134.15-45.44 135.04-45.54L135.04-45.54L135.33-45.54L135.33-45.54Q136.92-45.54 136.92-43.66L136.92-43.66L136.92-9.41L136.92-9.41Q136.92-3.56 144.74-3.56L144.74-3.56L144.74-3.56Q146.42-3.56 146.42-1.68L146.42-1.68L146.42-1.68Q146.42-0.30 144.74 0L144.74 0L128.80 1.09L128.80 1.09Q128.11 1.09 128.01 0.64L128.01 0.64L128.01 0.64Q127.91 0.20 127.91-0.89L127.91-0.89L127.91-6.44L127.71-6.44L127.71-6.44Q124.84-3.76 123.06-2.33L123.06-2.33L123.06-2.33Q121.28-0.89 118.45 0.15L118.45 0.15L118.45 0.15Q115.63 1.19 111.77 1.19L111.77 1.19ZM150.88 0.30L150.88 0.30Q150.08 0.30 149.69-0.30L149.69-0.30L149.69-0.30Q149.29-0.89 149.29-1.68L149.29-1.68L149.29-1.68Q149.39-2.97 149.84-3.22L149.84-3.22L149.84-3.22Q150.28-3.47 151.57-3.47L151.57-3.47L151.57-3.47Q154.14-3.47 155.23-4.36L155.23-4.36L155.23-4.36Q156.32-5.25 156.52-6.44L156.52-6.44L156.52-6.44Q156.72-7.62 156.72-10.20L156.72-10.20L156.72-58.51L156.72-58.51Q156.72-61.08 156.57-62.27L156.57-62.27L156.57-62.27Q156.42-63.46 155.33-64.35L155.33-64.35L155.33-64.35Q154.24-65.24 151.67-65.24L151.67-65.24L151.67-65.24Q150.48-65.24 149.89-65.59L149.89-65.59L149.89-65.59Q149.29-65.93 149.29-67.22L149.29-67.22L149.29-67.22Q149.29-67.81 149.69-68.36L149.69-68.36L149.69-68.36Q150.08-68.90 150.88-69.00L150.88-69.00L150.88-69.00Q155.83-69.70 158.35-70.54L158.35-70.54L158.35-70.54Q160.88-71.38 161.27-71.48L161.27-71.48L161.27-71.48Q163.15-72.17 163.85-72.17L163.85-72.17L163.85-72.17Q165.73-72.17 165.73-70.29L165.73-70.29L165.73-38.41L165.92-38.41L165.92-38.41Q168.80-41.09 170.58-42.52L170.58-42.52L170.58-42.52Q172.36-43.96 175.18-45.00L175.18-45.00L175.18-45.00Q178.00-46.04 181.86-46.04L181.86-46.04L181.86-46.04Q188.60-46.04 192.56-41.98L192.56-41.98L192.56-41.98Q196.52-37.92 196.52-31.28L196.52-31.28L196.52-10.20L196.52-10.20Q196.52-7.62 196.66-6.44L196.66-6.44L196.66-6.44Q196.81-5.25 197.90-4.36L197.90-4.36L197.90-4.36Q198.99-3.47 201.56-3.47L201.56-3.47L202.16-3.47L202.16-3.47Q203.05-3.47 203.40-3.17L203.40-3.17L203.40-3.17Q203.74-2.87 203.84-1.68L203.84-1.68L203.84-1.68Q203.84-0.89 203.45-0.30L203.45-0.30L203.45-0.30Q203.05 0.30 202.36 0.30L202.36 0.30L202.36 0.30Q196.52 0 191.96 0L191.96 0L191.96 0Q187.31 0 181.67 0.30L181.67 0.30L181.67 0.30Q180.87 0.30 180.48-0.30L180.48-0.30L180.48-0.30Q180.08-0.89 180.08-1.68L180.08-1.68L180.08-1.68Q180.18-2.97 180.63-3.22L180.63-3.22L180.63-3.22Q181.07-3.47 182.36-3.47L182.36-3.47L182.36-3.47Q184.93-3.47 186.02-4.36L186.02-4.36L186.02-4.36Q187.11-5.25 187.26-6.39L187.26-6.39L187.26-6.39Q187.41-7.52 187.41-10.20L187.41-10.20L187.41-31.19L187.41-31.19Q187.41-35.74 184.59-38.16L184.59-38.16L184.59-38.16Q181.76-40.59 178.00-40.59L178.00-40.59L178.00-40.59Q173.45-40.59 170.13-38.31L170.13-38.31L170.13-38.31Q166.82-36.04 165.73-33.76L165.73-33.76L165.73-10.20L165.73-10.20Q165.73-7.62 165.87-6.44L165.87-6.44L165.87-6.44Q166.02-5.25 167.11-4.36L167.11-4.36L167.11-4.36Q168.20-3.47 170.78-3.47L170.78-3.47L171.37-3.47L171.37-3.47Q172.26-3.47 172.61-3.17L172.61-3.17L172.61-3.17Q172.95-2.87 173.05-1.68L173.05-1.68L173.05-1.68Q173.05-0.89 172.66-0.30L172.66-0.30L172.66-0.30Q172.26 0.30 171.57 0.30L171.57 0.30L171.57 0.30Q165.83 0 161.17 0L161.17 0L161.17 0Q156.72 0 150.88 0.30L150.88 0.30ZM221.96 1.19L221.96 1.19Q216.02 1.19 212.36-2.18L212.36-2.18L212.36-2.18Q208.69-5.54 208.69-10.59L208.69-10.59L208.69-10.59Q208.69-16.83 212.85-19.95L212.85-19.95L212.85-19.95Q217.01-23.07 222.75-24.01L222.75-24.01L222.75-24.01Q228.49-24.95 237.60-25.44L237.60-25.44L237.60-33.26L237.60-33.26Q237.60-38.12 235.17-40.64L235.17-40.64L235.17-40.64Q232.75-43.16 227.40-43.16L227.40-43.16L227.40-43.16Q224.33-43.16 222.06-41.28L222.06-41.28L222.06-41.28Q219.78-39.40 219.78-36.23L219.78-36.23L219.78-36.23Q219.78-34.65 220.52-33.61L220.52-33.61L220.52-33.61Q221.27-32.57 222.11-31.88L222.11-31.88L222.11-31.88Q222.95-31.19 222.95-31.09L222.95-31.09L222.95-31.09Q222.95-30.49 221.71-29.55L221.71-29.55L221.71-29.55Q220.47-28.61 218.69-28.61L218.69-28.61L218.69-28.61Q215.72-28.61 213.99-30.79L213.99-30.79L213.99-30.79Q212.26-32.97 212.26-35.94L212.26-35.94L212.26-35.94Q212.26-41.09 216.86-43.56L216.86-43.56L216.86-43.56Q221.46-46.04 228.00-46.04L228.00-46.04L228.00-46.04Q236.12-46.04 241.21-42.97L241.21-42.97L241.21-42.97Q246.31-39.90 246.31-31.58L246.31-31.58L246.31-8.51L246.31-8.51Q246.41-6.44 247.60-4.55L247.60-4.55L247.60-4.55Q248.79-2.67 251.46-2.67L251.46-2.67L251.46-2.67Q252.25-2.67 252.60-2.38L252.60-2.38L252.60-2.38Q252.95-2.08 252.95-1.09L252.95-1.09L252.95-1.09Q252.95 0.10 251.11 0.64L251.11 0.64L251.11 0.64Q249.28 1.19 247.50 1.19L247.50 1.19L247.50 1.19Q243.74 1.19 240.87-0.99L240.87-0.99L240.87-0.99Q238.00-3.17 237.60-6.83L237.60-6.83L237.60-6.83Q235.52-2.97 231.21-0.89L231.21-0.89L231.21-0.89Q226.91 1.19 221.96 1.19L221.96 1.19ZM225.13-4.16L225.13-4.16Q228.49-4.16 231.36-5.84L231.36-5.84L231.36-5.84Q234.23-7.52 235.92-10.44L235.92-10.44L235.92-10.44Q237.60-13.37 237.60-16.93L237.60-16.93L237.60-22.57L237.60-22.57Q227.21-21.78 222.95-19.21L222.95-19.21L222.95-19.21Q218.69-16.63 218.69-10.89L218.69-10.89L218.69-10.89Q218.69-4.16 225.13-4.16L225.13-4.16ZM259.88 0.30L259.88 0.30Q259.18 0.30 258.74-0.30L258.74-0.30L258.74-0.30Q258.29-0.89 258.29-1.68L258.29-1.68L258.29-1.68Q258.39-2.97 258.84-3.22L258.84-3.22L258.84-3.22Q259.28-3.47 260.57-3.47L260.57-3.47L260.57-3.47Q263.14-3.47 264.23-4.36L264.23-4.36L264.23-4.36Q265.32-5.25 265.52-6.44L265.52-6.44L265.52-6.44Q265.72-7.62 265.72-10.20L265.72-10.20L265.72-32.87L265.72-32.87Q265.72-35.44 265.57-36.63L265.57-36.63L265.57-36.63Q265.42-37.82 264.33-38.71L264.33-38.71L264.33-38.71Q263.24-39.60 260.67-39.60L260.67-39.60L260.67-39.60Q259.48-39.60 258.88-39.95L258.88-39.95L258.88-39.95Q258.29-40.29 258.29-41.58L258.29-41.58L258.29-41.58Q258.29-42.17 258.69-42.72L258.69-42.72L258.69-42.72Q259.08-43.26 259.88-43.36L259.88-43.36L259.88-43.36Q266.31-44.35 270.47-45.94L270.47-45.94L270.47-45.94Q272.15-46.43 272.75-46.53L272.75-46.53L273.04-46.53L273.04-46.53Q274.63-46.53 274.63-44.65L274.63-44.65L274.63-38.41L274.92-38.41L274.92-38.41Q275.52-39.01 277.89-41.33L277.89-41.33L277.89-41.33Q280.27-43.66 283.29-44.85L283.29-44.85L283.29-44.85Q286.31-46.04 290.17-46.04L290.17-46.04L290.17-46.04Q294.92-46.04 298.39-44.01L298.39-44.01L298.39-44.01Q301.85-41.98 303.53-38.41L303.53-38.41L303.73-38.41L303.73-38.41Q307.59-42.08 311.11-44.05L311.11-44.05L311.11-44.05Q314.62-46.04 320.17-46.04L320.17-46.04L320.17-46.04Q326.90-46.04 330.86-41.98L330.86-41.98L330.86-41.98Q334.82-37.92 334.82-31.28L334.82-31.28L334.82-10.20L334.82-10.20Q334.82-7.62 335.02-6.44L335.02-6.44L335.02-6.44Q335.21-5.25 336.30-4.36L336.30-4.36L336.30-4.36Q337.39-3.47 339.97-3.47L339.97-3.47L340.56-3.47L340.56-3.47Q341.35-3.47 341.75-3.17L341.75-3.17L341.75-3.17Q342.14-2.87 342.24-1.68L342.24-1.68L342.24-1.68Q342.24-0.89 341.80-0.30L341.80-0.30L341.80-0.30Q341.35 0.30 340.66 0.30L340.66 0.30L340.66 0.30Q334.92 0 330.26 0L330.26 0L330.26 0Q325.81 0 319.97 0.30L319.97 0.30L319.97 0.30Q319.18 0.30 318.78-0.30L318.78-0.30L318.78-0.30Q318.38-0.89 318.38-1.68L318.38-1.68L318.38-1.68Q318.48-2.97 318.93-3.22L318.93-3.22L318.93-3.22Q319.37-3.47 320.66-3.47L320.66-3.47L320.66-3.47Q323.24-3.47 324.32-4.36L324.32-4.36L324.32-4.36Q325.41-5.25 325.61-6.44L325.61-6.44L325.61-6.44Q325.81-7.62 325.81-10.20L325.81-10.20L325.81-31.19L325.81-31.19Q325.81-35.74 322.94-38.16L322.94-38.16L322.94-38.16Q320.07-40.59 316.31-40.59L316.31-40.59L316.31-40.59Q311.75-40.59 308.88-38.41L308.88-38.41L308.88-38.41Q306.01-36.23 304.82-33.76L304.82-33.76L304.82-10.20L304.82-10.20Q304.82-9.60 304.77-7.52L304.77-7.52L304.77-7.52Q304.72-5.45 305.86-4.46L305.86-4.46L305.86-4.46Q307.00-3.47 309.57-3.47L309.57-3.47L310.17-3.47L310.17-3.47Q311.06-3.47 311.40-3.17L311.40-3.17L311.40-3.17Q311.75-2.87 311.85-1.68L311.85-1.68L311.85-1.68Q311.85-0.89 311.45-0.30L311.45-0.30L311.45-0.30Q311.06 0.30 310.27 0.30L310.27 0.30L310.27 0.30Q304.43 0 300.17 0L300.17 0L300.17 0Q296.11 0 290.27 0.30L290.27 0.30L290.27 0.30Q289.48 0.30 289.08-0.30L289.08-0.30L289.08-0.30Q288.68-0.89 288.68-1.68L288.68-1.68L288.68-1.68Q288.78-2.97 289.23-3.22L289.23-3.22L289.23-3.22Q289.67-3.47 290.96-3.47L290.96-3.47L290.96-3.47Q294.23-3.47 295.02-4.80L295.02-4.80L295.02-4.80Q295.81-6.14 295.76-7.87L295.76-7.87L295.76-7.87Q295.71-9.60 295.71-10.20L295.71-10.20L295.71-31.19L295.71-31.19Q295.71-35.74 292.89-38.16L292.89-38.16L292.89-38.16Q290.07-40.59 286.31-40.59L286.31-40.59L286.31-40.59Q281.75-40.59 278.88-38.41L278.88-38.41L278.88-38.41Q276.01-36.23 274.73-33.76L274.73-33.76L274.73-10.20L274.73-10.20Q274.73-7.62 274.92-6.44L274.92-6.44L274.92-6.44Q275.12-5.25 276.21-4.36L276.21-4.36L276.21-4.36Q277.30-3.47 279.87-3.47L279.87-3.47L280.47-3.47L280.47-3.47Q281.26-3.47 281.66-3.17L281.66-3.17L281.66-3.17Q282.05-2.87 282.15-1.68L282.15-1.68L282.15-1.68Q282.15-0.89 281.75-0.30L281.75-0.30L281.75-0.30Q281.36 0.30 280.57 0.30L280.57 0.30L280.57 0.30Q274.82 0 270.17 0L270.17 0L270.17 0Q265.72 0 259.88 0.30L259.88 0.30ZM348.58 0.30L348.58 0.30Q347.89 0.30 347.44-0.30L347.44-0.30L347.44-0.30Q347.00-0.89 347.00-1.68L347.00-1.68L347.00-1.68Q347.09-2.97 347.54-3.22L347.54-3.22L347.54-3.22Q347.99-3.47 349.27-3.47L349.27-3.47L349.27-3.47Q351.85-3.47 352.94-4.36L352.94-4.36L352.94-4.36Q354.02-5.25 354.22-6.44L354.22-6.44L354.22-6.44Q354.42-7.62 354.42-10.20L354.42-10.20L354.42-32.87L354.42-32.87Q354.42-35.44 354.27-36.63L354.27-36.63L354.27-36.63Q354.12-37.82 353.03-38.71L353.03-38.71L353.03-38.71Q351.94-39.60 349.37-39.60L349.37-39.60L349.37-39.60Q348.18-39.60 347.59-39.95L347.59-39.95L347.59-39.95Q347.00-40.29 347.00-41.58L347.00-41.58L347.00-41.58Q347.00-42.17 347.39-42.72L347.39-42.72L347.39-42.72Q347.79-43.26 348.58-43.36L348.58-43.36L348.58-43.36Q355.01-44.35 359.17-45.94L359.17-45.94L359.17-45.94Q360.86-46.43 361.45-46.53L361.45-46.53L361.75-46.53L361.75-46.53Q363.33-46.53 363.33-44.65L363.33-44.65L363.33-38.41L363.63-38.41L363.63-38.41Q364.22-39.01 366.60-41.33L366.60-41.33L366.60-41.33Q368.97-43.66 371.99-44.85L371.99-44.85L371.99-44.85Q375.01-46.04 378.87-46.04L378.87-46.04L378.87-46.04Q383.63-46.04 387.09-44.01L387.09-44.01L387.09-44.01Q390.56-41.98 392.24-38.41L392.24-38.41L392.44-38.41L392.44-38.41Q396.30-42.08 399.81-44.05L399.81-44.05L399.81-44.05Q403.33-46.04 408.87-46.04L408.87-46.04L408.87-46.04Q415.60-46.04 419.56-41.98L419.56-41.98L419.56-41.98Q423.52-37.92 423.52-31.28L423.52-31.28L423.52-10.20L423.52-10.20Q423.52-7.62 423.72-6.44L423.72-6.44L423.72-6.44Q423.92-5.25 425.01-4.36L425.01-4.36L425.01-4.36Q426.10-3.47 428.67-3.47L428.67-3.47L429.26-3.47L429.26-3.47Q430.06-3.47 430.45-3.17L430.45-3.17L430.45-3.17Q430.85-2.87 430.95-1.68L430.95-1.68L430.95-1.68Q430.95-0.89 430.50-0.30L430.50-0.30L430.50-0.30Q430.06 0.30 429.36 0.30L429.36 0.30L429.36 0.30Q423.62 0 418.97 0L418.97 0L418.97 0Q414.51 0 408.67 0.30L408.67 0.30L408.67 0.30Q407.88 0.30 407.48-0.30L407.48-0.30L407.48-0.30Q407.09-0.89 407.09-1.68L407.09-1.68L407.09-1.68Q407.19-2.97 407.63-3.22L407.63-3.22L407.63-3.22Q408.08-3.47 409.37-3.47L409.37-3.47L409.37-3.47Q411.94-3.47 413.03-4.36L413.03-4.36L413.03-4.36Q414.12-5.25 414.32-6.44L414.32-6.44L414.32-6.44Q414.51-7.62 414.51-10.20L414.51-10.20L414.51-31.19L414.51-31.19Q414.51-35.74 411.64-38.16L411.64-38.16L411.64-38.16Q408.77-40.59 405.01-40.59L405.01-40.59L405.01-40.59Q400.46-40.59 397.58-38.41L397.58-38.41L397.58-38.41Q394.71-36.23 393.53-33.76L393.53-33.76L393.53-10.20L393.53-10.20Q393.53-9.60 393.48-7.52L393.48-7.52L393.48-7.52Q393.43-5.45 394.56-4.46L394.56-4.46L394.56-4.46Q395.70-3.47 398.28-3.47L398.28-3.47L398.87-3.47L398.87-3.47Q399.76-3.47 400.11-3.17L400.11-3.17L400.11-3.17Q400.46-2.87 400.55-1.68L400.55-1.68L400.55-1.68Q400.55-0.89 400.16-0.30L400.16-0.30L400.16-0.30Q399.76 0.30 398.97 0.30L398.97 0.30L398.97 0.30Q393.13 0 388.87 0L388.87 0L388.87 0Q384.81 0 378.97 0.30L378.97 0.30L378.97 0.30Q378.18 0.30 377.78-0.30L377.78-0.30L377.78-0.30Q377.39-0.89 377.39-1.68L377.39-1.68L377.39-1.68Q377.49-2.97 377.93-3.22L377.93-3.22L377.93-3.22Q378.38-3.47 379.67-3.47L379.67-3.47L379.67-3.47Q382.93-3.47 383.72-4.80L383.72-4.80L383.72-4.80Q384.52-6.14 384.47-7.87L384.47-7.87L384.47-7.87Q384.42-9.60 384.42-10.20L384.42-10.20L384.42-31.19L384.42-31.19Q384.42-35.74 381.60-38.16L381.60-38.16L381.60-38.16Q378.77-40.59 375.01-40.59L375.01-40.59L375.01-40.59Q370.46-40.59 367.59-38.41L367.59-38.41L367.59-38.41Q364.72-36.23 363.43-33.76L363.43-33.76L363.43-10.20L363.43-10.20Q363.43-7.62 363.63-6.44L363.63-6.44L363.63-6.44Q363.83-5.25 364.91-4.36L364.91-4.36L364.91-4.36Q366.00-3.47 368.58-3.47L368.58-3.47L369.17-3.47L369.17-3.47Q369.96-3.47 370.36-3.17L370.36-3.17L370.36-3.17Q370.75-2.87 370.85-1.68L370.85-1.68L370.85-1.68Q370.85-0.89 370.46-0.30L370.46-0.30L370.46-0.30Q370.06 0.30 369.27 0.30L369.27 0.30L369.27 0.30Q363.53 0 358.88 0L358.88 0L358.88 0Q354.42 0 348.58 0.30L348.58 0.30ZM459.56 1.19L459.56 1.19Q452.13 1.19 446.94-1.98L446.94-1.98L446.94-1.98Q441.74-5.15 439.07-10.59L439.07-10.59L439.07-10.59Q436.39-16.04 436.39-22.67L436.39-22.67L436.39-22.67Q436.39-28.51 439.11-33.91L439.11-33.91L439.11-33.91Q441.84-39.30 446.89-42.67L446.89-42.67L446.89-42.67Q451.94-46.04 458.47-46.04L458.47-46.04L458.47-46.04Q467.28-46.04 472.03-41.53L472.03-41.53L472.03-41.53Q476.78-37.03 477.48-29.40L477.48-29.40L477.48-29.40Q477.48-26.14 475.70-24.95L475.70-24.95L475.70-24.95Q473.91-23.76 470.55-23.76L470.55-23.76L446.49-23.76L446.49-23.76Q446.49-14.55 450.30-9.16L450.30-9.16L450.30-9.16Q454.11-3.76 462.13-3.76L462.13-3.76L462.13-3.76Q466.39-3.76 469.36-5.59L469.36-5.59L469.36-5.59Q472.33-7.43 475.00-11.78L475.00-11.78L475.00-11.78Q475.50-12.28 475.99-12.28L475.99-12.28L475.99-12.28Q476.69-12.28 477.18-11.88L477.18-11.88L477.18-11.88Q478.17-11.29 478.17-10.10L478.17-10.10L478.17-10.10Q478.17-9.50 477.97-9.21L477.97-9.21L477.97-9.21Q474.90-4.26 470.20-1.53L470.20-1.53L470.20-1.53Q465.50 1.19 459.56 1.19L459.56 1.19ZM446.49-27.52L462.63-27.52L462.63-27.52Q467.68-27.52 467.97-31.68L467.97-31.68L467.97-31.68Q467.97-36.23 465.50-39.40L465.50-39.40L465.50-39.40Q463.02-42.57 458.47-42.57L458.47-42.57L458.47-42.57Q453.42-42.57 450.15-38.56L450.15-38.56L450.15-38.56Q446.89-34.55 446.49-27.52L446.49-27.52ZM506.88 1.19L506.88 1.19Q501.34 1.19 496.58-1.83L496.58-1.83L496.58-1.83Q491.83-4.85 488.96-10.25L488.96-10.25L488.96-10.25Q486.09-15.64 486.09-22.47L486.09-22.47L486.09-22.47Q486.09-28.61 489.06-34.06L489.06-34.06L489.06-34.06Q492.03-39.50 497.28-42.77L497.28-42.77L497.28-42.77Q502.52-46.04 508.96-46.04L508.96-46.04L508.96-46.04Q512.03-46.04 515.10-45.29L515.10-45.29L515.10-45.29Q518.17-44.55 520.44-43.26L520.44-43.26L520.74-43.26L520.74-58.41L520.74-58.41Q520.74-60.98 520.59-62.17L520.59-62.17L520.59-62.17Q520.44-63.36 519.35-64.25L519.35-64.25L519.35-64.25Q518.26-65.14 515.69-65.14L515.69-65.14L515.69-65.14Q514.50-65.14 513.91-65.49L513.91-65.49L513.91-65.49Q513.32-65.84 513.32-67.12L513.32-67.12L513.32-67.12Q513.32-67.72 513.71-68.26L513.71-68.26L513.71-68.26Q514.11-68.81 514.90-68.90L514.90-68.90L514.90-68.90Q521.14-69.80 525.59-71.48L525.59-71.48L525.59-71.48Q526.98-71.97 527.87-72.07L527.87-72.07L528.16-72.07L528.16-72.07Q529.75-72.07 529.75-70.19L529.75-70.19L529.75-9.11L529.75-9.11Q529.75-3.27 537.47-3.27L537.47-3.27L537.47-3.27Q539.15-3.27 539.15-1.68L539.15-1.68L539.15-1.68Q539.15-0.30 537.47 0L537.47 0L521.73 1.09L521.73 1.09Q521.04 1.09 520.94 0.64L520.94 0.64L520.94 0.64Q520.84 0.20 520.84-0.89L520.84-0.89L520.84-4.85L520.54-4.85L520.54-4.85Q517.97-2.18 514.26-0.49L514.26-0.49L514.26-0.49Q510.54 1.19 506.88 1.19L506.88 1.19ZM510.25-3.76L510.25-3.76Q513.71-3.76 516.14-5.10L516.14-5.10L516.14-5.10Q518.56-6.44 520.74-8.71L520.74-8.71L520.74-34.85L520.74-34.85Q519.85-37.72 517.03-40.09L517.03-40.09L517.03-40.09Q514.21-42.47 509.95-42.47L509.95-42.47L509.95-42.47Q506.09-42.47 502.97-40.05L502.97-40.05L502.97-40.05Q499.85-37.62 498.07-32.97L498.07-32.97L498.07-32.97Q496.29-28.31 496.29-21.98L496.29-21.98L496.29-21.98Q496.29-14.36 499.90-9.06L499.90-9.06L499.90-9.06Q503.51-3.76 510.25-3.76L510.25-3.76ZM597.07 1.98L597.07 1.98Q589.45 1.98 584.05-0.69L584.05-0.69L584.05-0.69Q578.65-3.37 575.88-7.72L575.88-7.72L575.88-7.72Q573.11-12.08 573.11-17.13L573.11-17.13L573.11-50.89L573.11-50.89Q573.01-53.36 572.67-54.90L572.67-54.90L572.67-54.90Q572.32-56.43 570.93-57.47L570.93-57.47L570.93-57.47Q569.55-58.51 566.68-58.51L566.68-58.51L566.08-58.51L566.08-58.51Q565.09-58.51 564.70-58.86L564.70-58.86L564.70-58.86Q564.30-59.20 564.20-60.59L564.20-60.59L564.20-60.59Q564.20-61.48 564.65-62.12L564.65-62.12L564.65-62.12Q565.09-62.77 565.98-62.77L565.98-62.77L565.98-62.77Q572.32-62.47 577.66-62.47L577.66-62.47L577.66-62.47Q583.70-62.47 590.04-62.77L590.04-62.77L590.04-62.77Q590.93-62.77 591.38-62.12L591.38-62.12L591.38-62.12Q591.82-61.48 591.82-60.59L591.82-60.59L591.82-60.59Q591.72-59.20 591.28-58.86L591.28-58.86L591.28-58.86Q590.83-58.51 589.84-58.51L589.84-58.51L589.84-58.51Q586.67-58.51 585.19-57.52L585.19-57.52L585.19-57.52Q583.70-56.53 583.36-55.04L583.36-55.04L583.36-55.04Q583.01-53.56 582.91-50.89L582.91-50.89L582.91-20.00L582.91-20.00Q582.91-13.17 586.13-8.51L586.13-8.51L586.13-8.51Q589.35-3.86 598.65-3.86L598.65-3.86L598.65-3.86Q607.76-3.86 611.57-8.07L611.57-8.07L611.57-8.07Q615.38-12.28 615.38-18.61L615.38-18.61L615.38-44.65L615.38-44.65Q615.38-51.38 614.89-54.15L614.89-54.15L614.89-54.15Q614.39-56.93 612.91-57.72L612.91-57.72L612.91-57.72Q611.42-58.51 607.76-58.51L607.76-58.51L607.17-58.51L607.17-58.51Q606.28-58.51 605.83-58.86L605.83-58.86L605.83-58.86Q605.38-59.20 605.29-60.59L605.29-60.59L605.29-60.59Q605.29-61.48 605.73-62.12L605.73-62.12L605.73-62.12Q606.18-62.77 607.07-62.77L607.07-62.77L607.07-62.77Q613.50-62.47 618.16-62.47L618.16-62.47L618.16-62.47Q622.91-62.47 629.24-62.77L629.24-62.77L629.24-62.77Q630.13-62.77 630.58-62.12L630.58-62.12L630.58-62.12Q631.03-61.48 631.03-60.59L631.03-60.59L631.03-60.59Q630.93-59.20 630.48-58.86L630.48-58.86L630.48-58.86Q630.04-58.51 629.05-58.51L629.05-58.51L629.05-58.51Q625.09-58.51 623.55-57.82L623.55-57.82L623.55-57.82Q622.02-57.12 621.47-54.50L621.47-54.50L621.47-54.50Q620.93-51.88 620.93-45.24L620.93-45.24L620.93-17.62L620.93-17.62Q620.93-10.99 617.26-6.58L617.26-6.58L617.26-6.58Q613.60-2.18 608.11-0.10L608.11-0.10L608.11-0.10Q602.61 1.98 597.07 1.98L597.07 1.98ZM637.76 0.30L637.76 0.30Q637.06 0.30 636.62-0.30L636.62-0.30L636.62-0.30Q636.17-0.89 636.17-1.68L636.17-1.68L636.17-1.68Q636.27-2.97 636.72-3.22L636.72-3.22L636.72-3.22Q637.16-3.47 638.45-3.47L638.45-3.47L638.45-3.47Q641.02-3.47 642.11-4.36L642.11-4.36L642.11-4.36Q643.20-5.25 643.40-6.44L643.40-6.44L643.40-6.44Q643.60-7.62 643.60-10.20L643.60-10.20L643.60-32.87L643.60-32.87Q643.60-35.44 643.45-36.63L643.45-36.63L643.45-36.63Q643.30-37.82 642.21-38.71L642.21-38.71L642.21-38.71Q641.12-39.60 638.55-39.60L638.55-39.60L638.55-39.60Q637.36-39.60 636.77-39.95L636.77-39.95L636.77-39.95Q636.17-40.29 636.17-41.58L636.17-41.58L636.17-41.58Q636.17-42.17 636.57-42.72L636.57-42.72L636.57-42.72Q636.97-43.26 637.76-43.36L637.76-43.36L637.76-43.36Q644.19-44.35 648.35-45.94L648.35-45.94L648.35-45.94Q650.03-46.43 650.63-46.53L650.63-46.53L650.92-46.53L650.92-46.53Q652.51-46.53 652.51-44.65L652.51-44.65L652.51-38.41L652.81-38.41L652.81-38.41Q653.40-39.01 655.78-41.33L655.78-41.33L655.78-41.33Q658.15-43.66 661.17-44.85L661.17-44.85L661.17-44.85Q664.19-46.04 668.05-46.04L668.05-46.04L668.05-46.04Q672.80-46.04 676.27-44.01L676.27-44.01L676.27-44.01Q679.73-41.98 681.42-38.41L681.42-38.41L681.62-38.41L681.62-38.41Q685.48-42.08 688.99-44.05L688.99-44.05L688.99-44.05Q692.50-46.04 698.05-46.04L698.05-46.04L698.05-46.04Q704.78-46.04 708.74-41.98L708.74-41.98L708.74-41.98Q712.70-37.92 712.70-31.28L712.70-31.28L712.70-10.20L712.70-10.20Q712.70-7.62 712.90-6.44L712.90-6.44L712.90-6.44Q713.10-5.25 714.19-4.36L714.19-4.36L714.19-4.36Q715.27-3.47 717.85-3.47L717.85-3.47L718.44-3.47L718.44-3.47Q719.24-3.47 719.63-3.17L719.63-3.17L719.63-3.17Q720.03-2.87 720.13-1.68L720.13-1.68L720.13-1.68Q720.13-0.89 719.68-0.30L719.68-0.30L719.68-0.30Q719.24 0.30 718.54 0.30L718.54 0.30L718.54 0.30Q712.80 0 708.15 0L708.15 0L708.15 0Q703.69 0 697.85 0.30L697.85 0.30L697.85 0.30Q697.06 0.30 696.66-0.30L696.66-0.30L696.66-0.30Q696.27-0.89 696.27-1.68L696.27-1.68L696.27-1.68Q696.37-2.97 696.81-3.22L696.81-3.22L696.81-3.22Q697.26-3.47 698.54-3.47L698.54-3.47L698.54-3.47Q701.12-3.47 702.21-4.36L702.21-4.36L702.21-4.36Q703.30-5.25 703.49-6.44L703.49-6.44L703.49-6.44Q703.69-7.62 703.69-10.20L703.69-10.20L703.69-31.19L703.69-31.19Q703.69-35.74 700.82-38.16L700.82-38.16L700.82-38.16Q697.95-40.59 694.19-40.59L694.19-40.59L694.19-40.59Q689.63-40.59 686.76-38.41L686.76-38.41L686.76-38.41Q683.89-36.23 682.70-33.76L682.70-33.76L682.70-10.20L682.70-10.20Q682.70-9.60 682.65-7.52L682.65-7.52L682.65-7.52Q682.61-5.45 683.74-4.46L683.74-4.46L683.74-4.46Q684.88-3.47 687.46-3.47L687.46-3.47L688.05-3.47L688.05-3.47Q688.94-3.47 689.29-3.17L689.29-3.17L689.29-3.17Q689.63-2.87 689.73-1.68L689.73-1.68L689.73-1.68Q689.73-0.89 689.34-0.30L689.34-0.30L689.34-0.30Q688.94 0.30 688.15 0.30L688.15 0.30L688.15 0.30Q682.31 0 678.05 0L678.05 0L678.05 0Q673.99 0 668.15 0.30L668.15 0.30L668.15 0.30Q667.36 0.30 666.96-0.30L666.96-0.30L666.96-0.30Q666.57-0.89 666.57-1.68L666.57-1.68L666.57-1.68Q666.67-2.97 667.11-3.22L667.11-3.22L667.11-3.22Q667.56-3.47 668.84-3.47L668.84-3.47L668.84-3.47Q672.11-3.47 672.90-4.80L672.90-4.80L672.90-4.80Q673.69-6.14 673.65-7.87L673.65-7.87L673.65-7.87Q673.60-9.60 673.60-10.20L673.60-10.20L673.60-31.19L673.60-31.19Q673.60-35.74 670.77-38.16L670.77-38.16L670.77-38.16Q667.95-40.59 664.19-40.59L664.19-40.59L664.19-40.59Q659.64-40.59 656.77-38.41L656.77-38.41L656.77-38.41Q653.89-36.23 652.61-33.76L652.61-33.76L652.61-10.20L652.61-10.20Q652.61-7.62 652.81-6.44L652.81-6.44L652.81-6.44Q653.00-5.25 654.09-4.36L654.09-4.36L654.09-4.36Q655.18-3.47 657.76-3.47L657.76-3.47L658.35-3.47L658.35-3.47Q659.14-3.47 659.54-3.17L659.54-3.17L659.54-3.17Q659.93-2.87 660.03-1.68L660.03-1.68L660.03-1.68Q660.03-0.89 659.64-0.30L659.64-0.30L659.64-0.30Q659.24 0.30 658.45 0.30L658.45 0.30L658.45 0.30Q652.71 0 648.05 0L648.05 0L648.05 0Q643.60 0 637.76 0.30L637.76 0.30ZM748.74 1.19L748.74 1.19Q741.31 1.19 736.11-1.98L736.11-1.98L736.11-1.98Q730.92-5.15 728.24-10.59L728.24-10.59L728.24-10.59Q725.57-16.04 725.57-22.67L725.57-22.67L725.57-22.67Q725.57-28.51 728.29-33.91L728.29-33.91L728.29-33.91Q731.02-39.30 736.06-42.67L736.06-42.67L736.06-42.67Q741.11-46.04 747.65-46.04L747.65-46.04L747.65-46.04Q756.46-46.04 761.21-41.53L761.21-41.53L761.21-41.53Q765.96-37.03 766.66-29.40L766.66-29.40L766.66-29.40Q766.66-26.14 764.87-24.95L764.87-24.95L764.87-24.95Q763.09-23.76 759.73-23.76L759.73-23.76L735.67-23.76L735.67-23.76Q735.67-14.55 739.48-9.16L739.48-9.16L739.48-9.16Q743.29-3.76 751.31-3.76L751.31-3.76L751.31-3.76Q755.57-3.76 758.54-5.59L758.54-5.59L758.54-5.59Q761.51-7.43 764.18-11.78L764.18-11.78L764.18-11.78Q764.68-12.28 765.17-12.28L765.17-12.28L765.17-12.28Q765.86-12.28 766.36-11.88L766.36-11.88L766.36-11.88Q767.35-11.29 767.35-10.10L767.35-10.10L767.35-10.10Q767.35-9.50 767.15-9.21L767.15-9.21L767.15-9.21Q764.08-4.26 759.38-1.53L759.38-1.53L759.38-1.53Q754.68 1.19 748.74 1.19L748.74 1.19ZM735.67-27.52L751.81-27.52L751.81-27.52Q756.85-27.52 757.15-31.68L757.15-31.68L757.15-31.68Q757.15-36.23 754.68-39.40L754.68-39.40L754.68-39.40Q752.20-42.57 747.65-42.57L747.65-42.57L747.65-42.57Q742.60-42.57 739.33-38.56L739.33-38.56L739.33-38.56Q736.06-34.55 735.67-27.52L735.67-27.52ZM776.06 0.30L776.06 0.30Q775.37 0.30 774.92-0.30L774.92-0.30L774.92-0.30Q774.48-0.89 774.48-1.68L774.48-1.68L774.48-1.68Q774.58-2.97 775.07-3.22L775.07-3.22L775.07-3.22Q775.57-3.47 776.85-3.47L776.85-3.47L776.85-3.47Q779.43-3.47 780.52-4.36L780.52-4.36L780.52-4.36Q781.60-5.25 781.75-6.44L781.75-6.44L781.75-6.44Q781.90-7.62 781.90-10.20L781.90-10.20L781.90-32.87L781.90-32.87Q781.90-35.44 781.75-36.63L781.75-36.63L781.75-36.63Q781.60-37.82 780.52-38.71L780.52-38.71L780.52-38.71Q779.43-39.60 776.85-39.60L776.85-39.60L776.85-39.60Q775.66-39.60 775.07-39.95L775.07-39.95L775.07-39.95Q774.48-40.29 774.48-41.58L774.48-41.58L774.48-41.58Q774.48-42.17 774.87-42.72L774.87-42.72L774.87-42.72Q775.27-43.26 776.06-43.36L776.06-43.36L776.06-43.36Q782.50-44.35 786.65-45.94L786.65-45.94L786.65-45.94Q788.34-46.43 788.93-46.53L788.93-46.53L789.23-46.53L789.23-46.53Q790.81-46.53 790.81-44.65L790.81-44.65L790.81-38.51L791.11-38.51L791.11-38.51Q794.57-41.98 798.14-44.01L798.14-44.01L798.14-44.01Q801.70-46.04 804.57-46.04L804.57-46.04L804.57-46.04Q807.84-46.04 809.77-43.61L809.77-43.61L809.77-43.61Q811.70-41.18 811.70-38.02L811.70-38.02L811.70-38.02Q811.70-35.24 810.02-33.07L810.02-33.07L810.02-33.07Q808.33-30.89 805.36-30.89L805.36-30.89L805.36-30.89Q803.98-30.89 802.94-31.48L802.94-31.48L802.94-31.48Q801.90-32.08 801.80-32.47L801.80-32.47L801.80-32.47Q801.90-32.67 802.79-33.71L802.79-33.71L802.79-33.71Q803.68-34.75 803.68-36.14L803.68-36.14L803.68-36.14Q803.68-37.92 802.74-39.01L802.74-39.01L802.74-39.01Q801.80-40.09 800.22-40.09L800.22-40.09L800.22-40.09Q798.53-40.09 795.96-38.46L795.96-38.46L795.96-38.46Q793.39-36.83 790.91-34.35L790.91-34.35L790.91-10.20L790.91-10.20Q790.91-7.62 791.11-6.44L791.11-6.44L791.11-6.44Q791.31-5.25 792.40-4.36L792.40-4.36L792.40-4.36Q793.48-3.47 796.06-3.47L796.06-3.47L796.65-3.47L796.65-3.47Q797.44-3.47 797.84-3.17L797.84-3.17L797.84-3.17Q798.24-2.87 798.34-1.68L798.34-1.68L798.34-1.68Q798.34-0.89 797.94-0.30L797.94-0.30L797.94-0.30Q797.54 0.30 796.75 0.30L796.75 0.30L796.75 0.30Q791.01 0 786.36 0L786.36 0L786.36 0Q781.90 0 776.06 0.30L776.06 0.30Z" fill="url(#editing-glowing-gradient)"></path></g></g><style>text {
  font-size: 64px;
  font-family: Arial Black;
  dominant-baseline: central;
  text-anchor: middle;
}</style></svg>